<?xml version="1.0" standalone="no"?>
<!DOCTYPE svg PUBLIC "-//W3C//DTD SVG 20010904//EN"
 "http://www.w3.org/TR/2001/REC-SVG-20010904/DTD/svg10.dtd">
<svg version="1.0" xmlns="http://www.w3.org/2000/svg"
 width="117.000000pt" height="75.000000pt" viewBox="0 0 117.000000 75.000000"
 preserveAspectRatio="xMidYMid meet">

<g transform="translate(0.000000,75.000000) scale(0.100000,-0.100000)"
fill="#000000" stroke="none">
<path d="M150 681 c0 -33 19 -91 30 -91 4 0 19 -18 34 -40 15 -23 42 -48 61
-57 40 -19 45 -33 13 -33 -21 0 -98 -71 -98 -90 0 -6 20 -10 45 -10 32 0 51 6
65 20 11 11 28 20 39 20 10 0 30 -9 44 -20 26 -21 107 -29 107 -10 0 16 -61
80 -76 80 -8 0 -14 5 -14 10 0 6 106 11 293 12 l292 3 -293 5 -294 5 32 24
c36 26 77 107 82 161 3 30 0 35 -20 38 -26 4 -29 -4 -36 -78 -5 -47 -11 -60
-41 -87 -46 -43 -99 -45 -146 -6 -38 32 -68 95 -69 141 0 27 -4 32 -25 32 -21
0 -25 -5 -25 -29z"/>
<path d="M300 690 c-26 -26 -26 -81 -2 -103 43 -39 106 -6 104 55 -2 59 -63
87 -102 48z m68 -22 c16 -16 15 -53 -3 -68 -20 -17 -54 -3 -61 26 -11 42 34
72 64 42z"/>
<path d="M545 698 c-3 -8 -14 -48 -24 -91 -18 -74 -18 -77 0 -77 18 0 39 50
39 93 0 37 17 14 29 -38 11 -47 16 -55 35 -55 21 0 25 9 41 85 10 47 15 88 12
92 -15 14 -35 -9 -41 -47 -8 -48 -16 -45 -31 8 -8 27 -17 38 -33 40 -12 2 -24
-3 -27 -10z"/>
<path d="M716 693 c-6 -21 -36 -152 -36 -159 0 -2 9 -4 20 -4 15 0 22 9 27 30
3 17 9 30 14 30 5 0 15 -13 24 -30 11 -22 23 -30 41 -30 l26 0 -20 33 -19 33
23 28 c28 32 30 49 8 70 -22 23 -101 22 -108 -1z m72 -40 c-2 -10 -13 -19 -25
-21 -17 -3 -20 1 -16 17 7 26 46 29 41 4z"/>
<path d="M863 620 l-20 -90 24 0 c17 0 23 6 23 23 0 33 12 45 45 49 43 4 48
38 6 38 -47 0 -41 28 6 32 27 2 39 8 41 21 3 14 -5 17 -51 17 l-54 0 -20 -90z"/>
<path d="M590 408 c0 -7 -3 -24 -6 -38 -6 -20 -4 -23 6 -13 11 10 16 9 27 -5
12 -15 13 -14 7 9 -3 15 -1 30 5 33 6 4 11 12 11 18 0 6 -9 3 -20 -7 -18 -17
-20 -17 -14 -2 3 10 1 17 -5 17 -6 0 -11 -6 -11 -12z"/>
<path d="M652 388 c-7 -25 -5 -35 5 -41 8 -5 18 -6 21 -2 4 4 1 10 -5 12 -19
7 -16 23 5 23 14 0 15 2 2 10 -13 8 -12 10 3 10 9 0 17 5 17 10 0 6 -9 10 -20
10 -14 0 -22 -10 -28 -32z"/>
<path d="M710 394 c-6 -15 -9 -32 -6 -38 2 -6 8 0 13 13 10 24 10 24 15 3 9
-32 25 -27 31 11 6 40 0 47 -12 16 -7 -16 -10 -19 -10 -7 -1 29 -21 30 -31 2z"/>
<path d="M783 386 c2 -43 9 -45 28 -8 22 45 23 48 7 35 -11 -9 -17 -10 -26 -1
-8 8 -10 1 -9 -26z"/>
<path d="M847 391 c-22 -37 -22 -36 8 -36 22 0 25 5 25 33 0 40 -10 41 -33 3z
m23 -11 c0 -5 -5 -10 -11 -10 -5 0 -7 5 -4 10 3 6 8 10 11 10 2 0 4 -4 4 -10z"/>
<path d="M260 314 c-12 -31 -13 -54 -2 -54 4 0 13 18 19 40 11 44 -2 55 -17
14z"/>
<path d="M510 318 c0 -32 9 -58 21 -58 10 0 0 61 -12 75 -5 5 -9 -2 -9 -17z"/>
<path d="M21 85 c0 -29 2 -35 8 -20 8 19 8 19 19 0 10 -17 11 -15 11 20 0 29
-2 35 -8 20 -8 -19 -8 -19 -19 0 -10 17 -11 15 -11 -20z"/>
<path d="M83 85 c-10 -32 -1 -51 10 -22 4 9 8 8 16 -3 10 -13 11 -13 11 0 0
24 -12 60 -19 60 -4 0 -12 -16 -18 -35z"/>
<path d="M127 112 c6 -4 13 -21 16 -37 l4 -30 2 32 c0 17 7 34 14 36 6 3 -1 6
-18 6 -16 0 -25 -3 -18 -7z"/>
<path d="M183 85 c0 -22 2 -30 4 -17 2 12 2 30 0 40 -3 9 -5 -1 -4 -23z"/>
<path d="M206 102 c-9 -27 3 -54 23 -50 22 5 22 62 -1 66 -9 2 -19 -5 -22 -16z
m34 -17 c0 -26 -14 -33 -25 -15 -9 14 1 40 15 40 5 0 10 -11 10 -25z"/>
<path d="M271 85 c1 -22 3 -32 6 -22 5 18 6 18 24 1 18 -17 19 -16 18 22 -1
27 -3 31 -6 15 l-5 -25 -19 25 -19 24 1 -40z"/>
<path d="M340 94 c-13 -32 -13 -54 -1 -35 8 12 12 12 24 2 13 -10 15 -9 10 8
-3 12 -9 19 -13 16 -5 -3 -6 4 -3 15 8 29 -6 25 -17 -6z"/>
<path d="M392 88 c-2 -34 1 -38 21 -37 15 1 17 3 5 6 -10 2 -18 17 -21 36 -4
31 -4 31 -5 -5z"/>
<path d="M450 83 c0 -30 3 -35 11 -23 8 11 12 12 16 3 9 -23 19 -14 17 14 -2
42 -3 43 -24 43 -16 0 -20 -7 -20 -37z m32 12 c0 -5 -5 -11 -11 -13 -6 -2 -11
4 -11 13 0 9 5 15 11 13 6 -2 11 -8 11 -13z"/>
<path d="M510 85 c0 -30 3 -35 23 -34 16 1 18 2 5 6 -21 5 -23 19 -5 26 10 4
10 6 0 6 -19 1 -16 19 5 24 13 4 11 5 -5 6 -20 1 -23 -4 -23 -34z"/>
<path d="M560 104 c0 -9 8 -23 18 -31 16 -14 16 -14 0 -9 -10 3 -18 1 -18 -4
0 -14 27 -12 36 2 4 6 -1 17 -12 25 -16 12 -17 15 -4 23 13 8 12 10 -2 10 -10
0 -18 -7 -18 -16z"/>
<path d="M610 85 c0 -32 3 -35 29 -35 16 0 32 6 34 13 4 9 8 8 16 -3 10 -13
11 -13 11 0 0 25 -12 60 -20 60 -5 0 -11 -13 -15 -30 -5 -21 -13 -30 -26 -30
-21 0 -26 16 -6 23 10 4 10 6 0 6 -19 1 -16 19 5 24 13 4 11 5 -5 6 -20 1 -23
-4 -23 -34z"/>
<path d="M721 83 c0 -21 3 -32 6 -25 3 9 9 10 17 3 9 -7 12 -2 11 22 0 22 -5
33 -17 35 -15 3 -18 -4 -17 -35z m29 12 c0 -8 -4 -15 -10 -15 -5 0 -10 7 -10
15 0 8 5 15 10 15 6 0 10 -7 10 -15z"/>
<path d="M777 113 c-4 -3 -7 -17 -7 -30 0 -26 25 -42 42 -25 7 7 4 10 -8 9
-13 -1 -19 5 -19 18 0 13 6 20 17 19 10 -1 15 2 12 7 -6 11 -28 12 -37 2z"/>
<path d="M832 85 c0 -22 2 -32 5 -22 2 9 11 17 18 17 7 0 16 -8 18 -17 3 -10
5 0 5 22 0 22 -2 32 -5 23 -2 -10 -11 -18 -18 -18 -7 0 -16 8 -18 18 -3 9 -5
-1 -5 -23z"/>
<path d="M911 83 c0 -21 3 -31 6 -23 3 8 11 18 17 22 8 5 7 8 -1 8 -19 0 -16
18 5 23 13 4 11 5 -5 6 -20 1 -23 -4 -22 -36z"/>
<path d="M962 92 c-1 -22 3 -35 14 -39 20 -7 34 13 33 47 -1 23 -2 23 -8 -4
-9 -42 -29 -44 -34 -4 l-4 33 -1 -33z"/>
<path d="M1021 85 c0 -22 3 -33 6 -25 3 8 11 18 17 22 7 5 5 13 -6 25 -17 16
-18 15 -17 -22z"/>
<path d="M1057 93 c-3 -16 -1 -32 4 -38 5 -5 9 5 9 28 0 44 -6 48 -13 10z"/>
<path d="M1080 85 c0 -32 3 -36 23 -33 17 2 22 10 22 33 0 23 -5 31 -22 33
-20 3 -23 -1 -23 -33z m35 0 c0 -10 -6 -20 -12 -22 -8 -3 -13 5 -13 22 0 17 5
25 13 23 6 -3 12 -13 12 -23z"/>
</g>
</svg>
